<svg xmlns="http://www.w3.org/2000/svg" width="143" height="83" viewBox="0 0 143 83" fill="none">
<g clip-path="url(#clip0_337_3233)">
<path d="M132.493 40.7189L5.19071 45.2092C1.95633 45.3259 -0.344416 42.7696 0.0390414 39.5129L3.4846 10.6036C3.87361 7.34145 6.80789 4.60723 10.0423 4.49053L137.344 0.000187695C140.579 -0.116517 142.88 2.43986 142.496 5.69647L139.051 34.6003C138.662 37.8624 135.727 40.5966 132.493 40.7133V40.7189Z" fill="#FBBC30"/>
<path d="M109.83 79.3479L18.8061 82.5544C16.1497 82.6489 14.2546 80.5482 14.5714 77.8696L18.267 46.8651C18.5893 44.1809 21.0012 41.9358 23.6576 41.8413L114.681 38.6347C117.338 38.5402 119.233 40.6409 118.916 43.3196L115.221 74.324C114.898 77.0082 112.486 79.2534 109.83 79.3479Z" fill="#005D37"/>
<path d="M35.6726 74.5963L35.4448 70.9507C35.4615 70.8229 35.3837 70.7617 35.2169 70.7673L29.9152 70.9563C29.7485 70.9618 29.6596 71.0285 29.6429 71.1563L28.537 74.852C28.4759 75.1354 28.2758 75.2799 27.9424 75.291L23.0575 75.4633C22.6962 75.4744 22.574 75.3132 22.7018 74.9798L31.9214 48.9158C32.0103 48.6324 32.2048 48.4879 32.5161 48.4768L38.1512 48.2767C38.4569 48.2656 38.618 48.399 38.6458 48.6768L41.6635 74.3073L41.6857 74.4574C41.6579 74.6852 41.4912 74.8075 41.1855 74.8186L36.1728 74.9964C35.8394 75.0076 35.6726 74.8742 35.6782 74.5963H35.6726ZM31.1601 66.7605L34.9168 66.6271C35.0558 66.6271 35.1169 66.5548 35.1058 66.4326L34.3889 56.0626C34.3722 55.9848 34.3333 55.9514 34.2777 55.9514C34.2222 55.9514 34.1777 55.9959 34.1388 56.0681L31.0156 66.5715C30.9989 66.6993 31.0489 66.7605 31.1601 66.7549V66.7605Z" fill="white"/>
<path d="M45.2757 73.0236C43.9142 71.7676 43.364 70.0393 43.6252 67.8441L45.1646 54.9233C45.4258 52.7337 46.3928 50.9498 48.0655 49.5882C49.7383 48.2211 51.8279 47.4931 54.3342 47.4042C56.8406 47.3153 58.7801 47.9099 60.1528 49.177C61.5254 50.4496 62.0812 52.1835 61.82 54.3731L61.6477 55.8236C61.631 55.9514 61.5699 56.0626 61.4643 56.1515C61.3532 56.2459 61.2309 56.2904 61.092 56.296L56.207 56.4682C56.0681 56.4682 55.957 56.4349 55.868 56.346C55.7791 56.2626 55.7458 56.1515 55.7625 56.0236L55.9458 54.4954C56.0348 53.7285 55.8847 53.1227 55.5013 52.667C55.1122 52.2113 54.5398 51.9946 53.7896 52.0224C53.0394 52.0501 52.4503 52.3058 51.9501 52.7893C51.45 53.2783 51.1554 53.9007 51.0609 54.6677L49.5104 67.6663C49.4215 68.4332 49.566 69.039 49.955 69.4947C50.344 69.9504 50.8998 70.1671 51.6222 70.1393C52.3447 70.1115 53.0005 69.8559 53.5006 69.3668C54.0008 68.8778 54.3009 68.2554 54.3898 67.4885L54.7566 64.4319C54.7732 64.3041 54.7121 64.243 54.5676 64.2485L52.7281 64.3152C52.5892 64.3152 52.4781 64.2819 52.3891 64.193C52.3002 64.1096 52.2669 63.9984 52.2836 63.8706L52.6892 60.4695C52.7059 60.3417 52.767 60.2306 52.8726 60.1416C52.9782 60.0472 53.106 60.0027 53.245 59.9972L60.6752 59.736C60.8141 59.736 60.9252 59.7693 61.0142 59.8582C61.1031 59.9471 61.1364 60.0527 61.1197 60.1805L60.275 67.2551C60.0138 69.4502 59.0413 71.2286 57.3519 72.5957C55.6624 73.9628 53.5673 74.6908 51.0609 74.7797C48.5546 74.8686 46.6206 74.2851 45.2646 73.0236H45.2757Z" fill="white"/>
<path d="M73.7016 73.2959L71.7454 62.8592C71.7009 62.7592 71.6398 62.7091 71.5564 62.7147L70.1393 62.7647C70.0004 62.7647 69.9226 62.837 69.9059 62.9648L68.6611 73.4015C68.6444 73.5293 68.5833 73.6405 68.4777 73.7294C68.3665 73.8238 68.2443 73.8683 68.1053 73.8739L63.2204 74.0461C63.0815 74.0461 62.9703 74.0128 62.8814 73.9239C62.7925 73.8405 62.7592 73.7294 62.7758 73.6016L65.8546 47.7543C65.8713 47.6265 65.9324 47.5153 66.038 47.4264C66.1436 47.332 66.2714 47.2875 66.4103 47.2819L74.8464 46.9874C76.3747 46.9318 77.7029 47.2208 78.8199 47.8544C79.9369 48.4879 80.7483 49.4048 81.2596 50.6052C81.7653 51.8056 81.9265 53.195 81.7375 54.7788C81.5486 56.3627 81.0873 57.6186 80.3259 58.7857C79.5646 59.9527 78.5865 60.8808 77.3972 61.5532C77.3361 61.581 77.2916 61.6144 77.2583 61.6533C77.2249 61.6922 77.2194 61.7366 77.2416 61.7866L79.7369 72.9291L79.7591 73.0792C79.7313 73.3348 79.559 73.4682 79.2534 73.4793L74.2406 73.6571C73.935 73.6682 73.7572 73.546 73.7016 73.2959ZM71.2174 51.9112L70.4394 58.4467C70.4227 58.5745 70.4839 58.6356 70.6228 58.6301L72.5012 58.5634C73.3626 58.5356 74.1017 58.1966 74.7186 57.5519C75.3354 56.9073 75.7078 56.0626 75.83 55.0178C75.9523 53.973 75.7856 53.1116 75.3188 52.5059C74.852 51.9001 74.1851 51.6111 73.3237 51.6445L71.4453 51.7112C71.3064 51.7112 71.2286 51.7834 71.2119 51.9112H71.2174Z" fill="white"/>
<path d="M82.5433 73.2292C82.4544 73.1459 82.4211 73.0347 82.4377 72.9069L85.5165 47.0596C85.5332 46.9318 85.5943 46.8207 85.6999 46.7318C85.8055 46.6373 85.9333 46.5928 86.0722 46.5873L90.9572 46.415C91.0961 46.415 91.2072 46.4483 91.2962 46.5373C91.3851 46.6262 91.4184 46.7318 91.4017 46.8596L88.323 72.7068C88.3063 72.8346 88.2452 72.9458 88.1396 73.0347C88.0284 73.1292 87.9062 73.1736 87.7672 73.1792L82.8823 73.3515C82.7434 73.3515 82.6322 73.3181 82.5433 73.2292Z" fill="white"/>
<path d="M95.3086 72.34C94.1526 71.7954 93.3079 71.0063 92.7633 69.9726C92.2187 68.9389 92.0297 67.733 92.1964 66.3548L92.3298 65.2489C92.3465 65.121 92.4076 65.0099 92.5132 64.921C92.6188 64.8265 92.7466 64.782 92.8856 64.7765L97.6871 64.6098C97.826 64.6098 97.9372 64.6431 98.0261 64.732C98.115 64.8209 98.1484 64.9265 98.1317 65.0543L98.0317 65.8935C97.9372 66.6827 98.0817 67.3162 98.4707 67.783C98.8597 68.2498 99.3877 68.4721 100.055 68.4499C100.721 68.4277 101.305 68.1776 101.805 67.7052C102.305 67.2328 102.6 66.6215 102.689 65.8824C102.778 65.1433 102.578 64.4708 102.089 63.9429C101.594 63.4149 100.61 62.6425 99.1209 61.631C97.8372 60.7641 96.8091 59.986 96.031 59.3025C95.253 58.6189 94.6195 57.7687 94.1304 56.7406C93.6414 55.718 93.4802 54.5176 93.6469 53.1394C93.9026 50.972 94.8473 49.2159 96.4812 47.8599C98.1095 46.5095 100.138 45.787 102.561 45.7037C104.984 45.6203 106.901 46.226 108.229 47.5209C109.558 48.8213 110.091 50.5663 109.83 52.7559L109.719 53.6729C109.702 53.8007 109.641 53.9119 109.535 54.0008C109.424 54.0953 109.302 54.1397 109.163 54.1453L104.361 54.312C104.223 54.312 104.111 54.2786 104.022 54.1897C103.934 54.1064 103.9 53.9952 103.917 53.8674L104.039 52.8337C104.134 52.0446 103.995 51.4222 103.617 50.9665C103.239 50.5108 102.705 50.294 102.011 50.3163C101.316 50.3385 100.771 50.583 100.305 51.0443C99.8323 51.5055 99.5544 52.128 99.4599 52.9227C99.3654 53.7174 99.5544 54.3565 100.01 54.9233C100.471 55.4902 101.416 56.2682 102.85 57.2574C104.434 58.3689 105.623 59.2747 106.412 59.9694C107.201 60.664 107.79 61.4421 108.174 62.3035C108.557 63.1649 108.674 64.2096 108.529 65.4322C108.263 67.6774 107.296 69.4891 105.64 70.8673C103.978 72.2456 101.922 72.9791 99.4766 73.0625C97.8594 73.1181 96.4756 72.8735 95.3252 72.3345L95.3086 72.34Z" fill="white"/>
<path d="M41.7524 31.5157L41.6412 29.1038C41.6523 29.0205 41.6079 28.9816 41.5079 28.9816L38.3457 29.0927C38.2457 29.0927 38.1901 29.1427 38.179 29.2261L37.4899 31.6658C37.451 31.8492 37.3343 31.9492 37.1342 31.9548L34.2222 32.0548C34.0054 32.0604 33.9387 31.9548 34.011 31.738L39.7073 14.5325C39.7628 14.3491 39.8795 14.249 40.0629 14.2435L43.4251 14.1268C43.6085 14.1212 43.703 14.2101 43.7141 14.3935L45.3146 31.3435L45.3257 31.4435C45.3091 31.5935 45.209 31.6713 45.0257 31.6825L42.0358 31.788C41.8357 31.7936 41.7413 31.7047 41.7468 31.5213L41.7524 31.5157ZM39.1182 26.3252L41.3578 26.2474C41.4412 26.2474 41.4801 26.2029 41.4745 26.1195L41.1244 19.2618C41.1133 19.2118 41.091 19.1895 41.0577 19.1895C41.0244 19.1895 40.9966 19.2173 40.9743 19.2673L39.0293 26.2029C39.0182 26.2863 39.0459 26.3307 39.1126 26.3252H39.1182Z" fill="white"/>
<path d="M56.496 14.3157C57.1574 14.7437 57.6297 15.3605 57.9243 16.1663C58.2188 16.9721 58.3022 17.8947 58.1743 18.9395C57.9854 20.5066 57.4241 21.7737 56.4794 22.7462C55.5346 23.7188 54.3953 24.23 53.0505 24.2745L51.1832 24.3412C51.0998 24.3412 51.0554 24.3857 51.0443 24.4746L50.244 31.1934C50.2329 31.2768 50.194 31.349 50.1329 31.4101C50.0662 31.4713 49.9939 31.5046 49.9106 31.5046L46.9985 31.6047C46.9152 31.6047 46.8485 31.5824 46.7984 31.5213C46.7484 31.4657 46.7262 31.3935 46.7373 31.3101L48.7769 14.2046C48.788 14.1212 48.8213 14.049 48.888 13.9879C48.9547 13.9267 49.0269 13.8934 49.1103 13.8934L54.1397 13.7155C55.0511 13.6822 55.8403 13.8823 56.496 14.3102V14.3157ZM53.9674 20.8567C54.3398 20.4344 54.5676 19.8564 54.6565 19.134C54.7455 18.4115 54.6565 17.8169 54.3787 17.4056C54.1064 16.9944 53.7007 16.7999 53.1727 16.8221L52.0779 16.861C51.9946 16.861 51.9501 16.9055 51.939 16.9888L51.4111 21.4347C51.3999 21.5181 51.4388 21.557 51.5222 21.557L52.617 21.5181C53.1505 21.5014 53.6006 21.2791 53.973 20.8512L53.9674 20.8567Z" fill="white"/>
<path d="M68.0775 13.9101C68.7389 14.338 69.2112 14.9548 69.5058 15.7606C69.8003 16.5665 69.8837 17.489 69.7559 18.5338C69.5669 20.1009 69.0056 21.368 68.0609 22.3406C67.1161 23.3131 65.9769 23.8244 64.632 23.8688L62.7647 23.9355C62.6814 23.9355 62.6369 23.98 62.6258 24.0689L61.8255 30.7877C61.8144 30.8711 61.7755 30.9433 61.7144 31.0045C61.6477 31.0656 61.5754 31.0989 61.4921 31.0989L58.58 31.199C58.4967 31.199 58.43 31.1767 58.38 31.1156C58.33 31.06 58.3077 30.9878 58.3188 30.9044L60.3584 13.7989C60.3695 13.7155 60.4028 13.6433 60.4695 13.5822C60.5362 13.521 60.6085 13.4877 60.6918 13.4877L65.7212 13.3099C66.6326 13.2765 67.4218 13.4766 68.0775 13.9045V13.9101ZM65.5489 20.4511C65.9213 20.0287 66.1491 19.4507 66.2381 18.7283C66.327 18.0058 66.2381 17.4112 65.9602 16.9999C65.6879 16.5887 65.2822 16.3942 64.7542 16.4164L63.6595 16.4553C63.5761 16.4553 63.5316 16.4998 63.5205 16.5831L62.9926 21.029C62.9815 21.1124 63.0204 21.1513 63.1037 21.1513L64.1985 21.1124C64.732 21.0957 65.1822 20.8734 65.5545 20.4455L65.5489 20.4511Z" fill="white"/>
<path d="M76.4414 30.3209L75.3521 23.4187C75.3243 23.352 75.291 23.3186 75.241 23.3242L74.3962 23.352C74.3129 23.352 74.2684 23.3964 74.2573 23.4798L73.4348 30.3765C73.4237 30.4598 73.3848 30.5321 73.3237 30.5932C73.257 30.6543 73.1847 30.6877 73.1014 30.6877L70.1893 30.7877C70.106 30.7877 70.0393 30.7655 69.9893 30.7044C69.9393 30.6488 69.917 30.5765 69.9281 30.4932L71.9621 13.4154C71.9733 13.3321 72.0122 13.2598 72.0733 13.1987C72.14 13.1376 72.2122 13.1042 72.2956 13.1042L77.325 12.9264C78.2364 12.8931 79.0255 13.0876 79.6868 13.5099C80.3482 13.9323 80.8261 14.538 81.1206 15.3327C81.4152 16.1274 81.4985 17.0444 81.3763 18.0892C81.254 19.134 80.965 19.9676 80.5038 20.7345C80.0425 21.5014 79.4479 22.1127 78.7365 22.5573C78.7032 22.574 78.6754 22.5962 78.6532 22.624C78.631 22.6518 78.6309 22.6795 78.6421 22.7129L80.0481 30.0875L80.0592 30.1875C80.037 30.3542 79.9369 30.4432 79.7535 30.4487L76.7637 30.5543C76.5803 30.5599 76.4747 30.4821 76.4469 30.3153L76.4414 30.3209ZM75.1243 16.1774L74.6074 20.4955C74.5963 20.5789 74.6352 20.6178 74.7186 20.6178L75.8412 20.5789C76.358 20.5622 76.797 20.3399 77.1749 19.9175C77.5473 19.4952 77.7751 18.9339 77.8585 18.2448C77.9418 17.539 77.8474 16.9833 77.5751 16.5831C77.3027 16.183 76.9026 15.9885 76.3913 16.0107L75.2688 16.0496C75.1854 16.0496 75.1409 16.0941 75.1298 16.1774H75.1243Z" fill="white"/>
<path d="M92.4187 15.355C92.352 15.4161 92.2798 15.4494 92.1964 15.4494L86.9892 15.6328C86.9058 15.6328 86.8614 15.6773 86.8503 15.7606L86.3723 19.7508C86.3612 19.8342 86.4001 19.8731 86.4835 19.8731L89.4733 19.7675C89.5567 19.7675 89.6234 19.7897 89.6734 19.8509C89.7234 19.9064 89.7456 19.9787 89.7345 20.062L89.44 22.5128C89.4289 22.5962 89.39 22.6684 89.3289 22.7296C89.2622 22.7907 89.1899 22.824 89.1066 22.824L86.1167 22.9296C86.0333 22.9296 85.9889 22.9741 85.9778 23.0574L85.4998 27.0754C85.4887 27.1588 85.5276 27.1977 85.611 27.1977L90.8182 27.0143C90.9016 27.0143 90.9683 27.0365 91.0183 27.0976C91.0683 27.1532 91.0905 27.2255 91.0794 27.3088L90.7849 29.7596C90.7738 29.843 90.7349 29.9152 90.6737 29.9763C90.607 30.0375 90.5348 30.0708 90.4514 30.0708L81.9098 30.3709C81.8264 30.3709 81.7597 30.3487 81.7097 30.2876C81.6597 30.232 81.6375 30.1597 81.6486 30.0764L83.6826 12.9986C83.6937 12.9153 83.7326 12.843 83.7937 12.7819C83.8604 12.7208 83.9327 12.6874 84.016 12.6874L92.5577 12.3873C92.641 12.3873 92.7077 12.4096 92.7577 12.4707C92.8078 12.5263 92.83 12.5985 92.8189 12.6819L92.5243 15.1327C92.5132 15.216 92.4743 15.2883 92.4132 15.3494L92.4187 15.355Z" fill="white"/>
<path d="M101.827 12.1539C101.894 12.0928 101.966 12.0595 102.05 12.0595L104.939 11.9594C105.023 11.9594 105.09 11.9816 105.14 12.0428C105.19 12.0984 105.212 12.1706 105.201 12.254L103.167 29.3317C103.156 29.4151 103.117 29.4873 103.056 29.5484C102.989 29.6096 102.917 29.6429 102.833 29.6429L99.5433 29.7596C99.3765 29.7652 99.2821 29.6874 99.2487 29.5206L97.3259 19.8509C97.3148 19.8008 97.287 19.7786 97.2481 19.7897C97.2036 19.8008 97.1814 19.8286 97.1758 19.8786L96.0421 29.5762C96.031 29.6596 95.9921 29.7318 95.931 29.793C95.8643 29.8541 95.7921 29.8874 95.7087 29.8874L92.8189 29.9875C92.7355 29.9875 92.6688 29.9652 92.6188 29.9041C92.5688 29.8485 92.5466 29.7763 92.5577 29.6929L94.5917 12.6152C94.6028 12.5318 94.6417 12.4596 94.7028 12.3984C94.7695 12.3373 94.8417 12.304 94.9251 12.304L98.1873 12.1873C98.354 12.1817 98.4485 12.2595 98.4818 12.4262L100.427 22.096C100.438 22.146 100.466 22.1683 100.505 22.1572C100.549 22.146 100.571 22.1183 100.577 22.0682L101.711 12.3707C101.722 12.2873 101.761 12.2151 101.822 12.1539H101.827Z" fill="white"/>
<path d="M117.293 11.6093C117.343 11.6649 117.366 11.7371 117.355 11.8205L117.06 14.2713C117.049 14.3546 117.01 14.4269 116.949 14.488C116.882 14.5491 116.81 14.5825 116.727 14.5825L113.614 14.6936C113.531 14.6936 113.487 14.7381 113.476 14.8215L111.786 29.0205C111.775 29.1038 111.736 29.1761 111.675 29.2372C111.608 29.2983 111.536 29.3317 111.453 29.3317L108.541 29.4317C108.457 29.4317 108.391 29.4095 108.341 29.3484C108.291 29.2928 108.268 29.2205 108.279 29.1372L109.969 14.9382C109.98 14.8548 109.941 14.8159 109.858 14.8159L106.868 14.9215C106.784 14.9215 106.718 14.8993 106.668 14.8381C106.618 14.7826 106.596 14.7103 106.607 14.6269L106.901 12.1762C106.912 12.0928 106.951 12.0205 107.012 11.9594C107.079 11.8983 107.151 11.8649 107.235 11.8649L117.099 11.5148C117.182 11.5148 117.249 11.5371 117.299 11.5982L117.293 11.6093Z" fill="white"/>
<path d="M117.077 29.0483C117.027 28.9927 117.004 28.9205 117.016 28.8371L119.05 11.7594C119.061 11.676 119.1 11.6037 119.161 11.5426C119.227 11.4815 119.3 11.4481 119.383 11.4481L122.295 11.3481C122.378 11.3481 122.445 11.3703 122.495 11.4315C122.545 11.487 122.567 11.5593 122.556 11.6427L120.522 28.7204C120.511 28.8037 120.472 28.876 120.411 28.9371C120.344 28.9983 120.272 29.0316 120.189 29.0316L117.277 29.1316C117.193 29.1316 117.127 29.1094 117.077 29.0483Z" fill="white"/>
<path d="M124.69 28.4925C124.007 28.1313 123.507 27.6089 123.19 26.9254C122.873 26.2418 122.773 25.4416 122.879 24.5357L122.968 23.8021C122.979 23.7188 123.012 23.6465 123.079 23.5854C123.145 23.5243 123.218 23.4909 123.301 23.4909L126.163 23.3909C126.246 23.3909 126.313 23.4131 126.363 23.4742C126.413 23.5298 126.435 23.6021 126.424 23.6854L126.357 24.2412C126.296 24.7636 126.38 25.1804 126.608 25.4916C126.835 25.8028 127.147 25.9528 127.547 25.9362C127.947 25.9195 128.297 25.7583 128.597 25.4471C128.897 25.1359 129.081 24.7358 129.136 24.2467C129.192 23.7577 129.081 23.3131 128.792 22.963C128.503 22.6129 127.919 22.1016 127.041 21.4291C126.285 20.8512 125.674 20.3399 125.218 19.8842C124.757 19.4285 124.39 18.8672 124.107 18.1892C123.823 17.5112 123.734 16.7165 123.846 15.8107C124.018 14.3769 124.59 13.2209 125.574 12.3262C126.558 11.437 127.769 10.9647 129.214 10.9146C130.659 10.8646 131.798 11.2703 132.576 12.1317C133.36 12.9931 133.665 14.149 133.488 15.5939L133.415 16.1997C133.404 16.283 133.365 16.3553 133.304 16.4164C133.237 16.4775 133.165 16.5109 133.082 16.5109L130.22 16.6109C130.136 16.6109 130.07 16.5887 130.02 16.5276C129.97 16.472 129.948 16.3997 129.959 16.3164L130.042 15.6328C130.103 15.1104 130.025 14.6992 129.803 14.3935C129.581 14.0934 129.264 13.949 128.853 13.9601C128.441 13.9712 128.114 14.1323 127.83 14.438C127.547 14.7437 127.374 15.1549 127.313 15.6773C127.252 16.1997 127.358 16.622 127.625 16.9999C127.891 17.3778 128.453 17.8947 129.297 18.5504C130.237 19.2896 130.937 19.8898 131.404 20.351C131.87 20.8123 132.215 21.3291 132.432 21.9015C132.654 22.4739 132.715 23.163 132.621 23.9689C132.443 25.4527 131.854 26.6475 130.853 27.5533C129.853 28.4592 128.619 28.9427 127.163 28.9927C126.202 29.026 125.374 28.8649 124.69 28.5037V28.4925Z" fill="white"/>
<path d="M9.28078 27.0754C9.24744 27.0365 9.23076 26.9865 9.23632 26.9309L10.6479 15.0771C10.6534 15.016 10.6812 14.9659 10.7257 14.927C10.7701 14.8826 10.8202 14.8604 10.8813 14.8604L12.9042 14.7881C12.9597 14.7881 13.0098 14.8048 13.0431 14.8437C13.0764 14.8826 13.0931 14.9326 13.0876 14.9882L11.915 24.8469C11.9094 24.908 11.9316 24.9358 11.9928 24.9303L15.6217 24.8025C15.6773 24.8025 15.7273 24.8191 15.7607 24.858C15.794 24.8969 15.8107 24.9469 15.8051 25.0025L15.605 26.7031C15.5995 26.7642 15.5717 26.8142 15.5272 26.8531C15.4828 26.8976 15.4328 26.9198 15.3716 26.9198L9.42527 27.131C9.3697 27.131 9.31968 27.1143 9.28634 27.0754H9.28078Z" fill="white"/>
<path d="M24.08 16.4386C24.0355 16.4831 23.9855 16.5053 23.9244 16.5053L20.3121 16.6331C20.2565 16.6331 20.2232 16.6665 20.2176 16.7221L19.8898 19.4952C19.8842 19.5563 19.9064 19.5841 19.9676 19.5785L22.0405 19.5063C22.096 19.5063 22.146 19.523 22.1794 19.5619C22.2127 19.6008 22.2294 19.6508 22.2238 19.7064L22.0238 21.4069C22.0182 21.468 21.9904 21.5181 21.946 21.557C21.9015 21.6014 21.8515 21.6237 21.7904 21.6237L19.7175 21.6959C19.6619 21.6959 19.6286 21.7292 19.623 21.7848L19.2896 24.5746C19.284 24.6357 19.3062 24.6635 19.3674 24.658L22.9796 24.5301C23.0352 24.5301 23.0852 24.5468 23.1186 24.5857C23.1519 24.6246 23.1686 24.6746 23.163 24.7302L22.963 26.4308C22.9574 26.4919 22.9296 26.5419 22.8852 26.5808C22.8407 26.6253 22.7907 26.6475 22.7296 26.6475L16.7999 26.8587C16.7443 26.8587 16.6943 26.842 16.6609 26.8031C16.6276 26.7642 16.6109 26.7142 16.6165 26.6586L18.028 14.8048C18.0336 14.7436 18.0614 14.6936 18.1058 14.6547C18.1503 14.6103 18.2003 14.588 18.2615 14.588L24.1911 14.3769C24.2467 14.3769 24.2967 14.3935 24.3301 14.4324C24.3634 14.4713 24.3801 14.5214 24.3745 14.5769L24.1745 16.2775C24.1689 16.3386 24.1411 16.3886 24.0967 16.4275L24.08 16.4386Z" fill="white"/>
<path d="M25.5305 26.3029C25.0525 26.0529 24.708 25.6861 24.4912 25.2137C24.2745 24.7358 24.2023 24.1856 24.2745 23.5521L24.3356 23.0408C24.3412 22.9796 24.369 22.9296 24.4134 22.8907C24.4579 22.8463 24.5079 22.824 24.5691 22.824L26.5586 22.7518C26.6142 22.7518 26.6642 22.7685 26.6975 22.8074C26.7309 22.8463 26.7475 22.8963 26.742 22.9519L26.6975 23.3353C26.6531 23.6965 26.7142 23.9855 26.8698 24.2023C27.0254 24.419 27.2477 24.519 27.52 24.5135C27.7923 24.5079 28.0368 24.3912 28.248 24.1745C28.4592 23.9577 28.5815 23.6799 28.6204 23.3409C28.6593 23.0019 28.5815 22.6907 28.3814 22.4517C28.1813 22.2072 27.7756 21.8515 27.1643 21.3847C26.6364 20.9846 26.214 20.6289 25.8973 20.3121C25.5805 19.9953 25.3193 19.6063 25.1248 19.134C24.9303 18.6616 24.8692 18.1114 24.9414 17.4834C25.0581 16.4887 25.4582 15.6828 26.1418 15.066C26.8253 14.4491 27.6645 14.1212 28.6704 14.0879C29.6763 14.0545 30.4654 14.3324 31.0045 14.9326C31.5435 15.5328 31.7603 16.3331 31.638 17.3389L31.588 17.7613C31.5824 17.8224 31.5546 17.8724 31.5102 17.9113C31.4657 17.9558 31.4157 17.978 31.3546 17.978L29.365 18.0503C29.3095 18.0503 29.2595 18.0336 29.2261 17.9947C29.1928 17.9558 29.1761 17.9058 29.1817 17.8502L29.2372 17.3778C29.2817 17.0166 29.2261 16.7276 29.0705 16.5164C28.9149 16.3053 28.6982 16.2052 28.4092 16.2163C28.1202 16.2275 27.8979 16.3386 27.6978 16.5498C27.4978 16.761 27.3811 17.05 27.3366 17.4112C27.2922 17.7724 27.37 18.0669 27.5534 18.3281C27.7423 18.5893 28.1258 18.9506 28.7148 19.4063C29.365 19.9175 29.8541 20.3343 30.1764 20.6567C30.4987 20.979 30.7377 21.3347 30.8933 21.7292C31.0489 22.1238 31.0878 22.6017 31.0211 23.163C30.8989 24.1911 30.4876 25.0192 29.793 25.6527C29.0983 26.2807 28.2425 26.6142 27.231 26.6531C26.5641 26.6753 25.9917 26.5641 25.5138 26.3141L25.5305 26.3029Z" fill="white"/>
</g>
<defs>
<clipPath id="clip0_337_3233">
<rect width="142.54" height="82.56" fill="white"/>
</clipPath>
</defs>
</svg>
